<svg xmlns="http://www.w3.org/2000/svg" width="17.417" height="18.5" viewBox="0 0 17.417 18.5">
  <g id="Group_6" data-name="Group 6" transform="translate(-2473 -2959)">
    <g id="Layer_3" data-name="Layer 3" transform="translate(2473.01 2959)">
      <path id="Path_54" data-name="Path 54" d="M3,5.53A2.52,2.52,0,1,1,5.48,3,2.52,2.52,0,0,1,3,5.53Zm0-4A1.52,1.52,0,1,0,4.48,3,1.52,1.52,0,0,0,3,1.49Z" fill="#b2b2b2"/>
      <path id="Path_55" data-name="Path 55" d="M14.45,5.53a2.52,2.52,0,1,1,1.8-.731,2.52,2.52,0,0,1-1.8.731Zm0-4A1.52,1.52,0,1,0,16,3a1.52,1.52,0,0,0-1.55-1.51Z" fill="#b2b2b2"/>
      <path id="Path_56" data-name="Path 56" d="M4.47,17.79h-3a1.43,1.43,0,0,1-1.1-.49A1.39,1.39,0,0,1,0,16.18l.84-7.5A1.46,1.46,0,0,1,2.29,7.39H3.63A1.47,1.47,0,0,1,5.07,8.68l.84,7.5a1.458,1.458,0,0,1-1.44,1.61ZM2.29,8.39a.44.44,0,0,0-.44.4L1,16.29a.49.49,0,0,0,.11.35.49.49,0,0,0,.34.15h3a.45.45,0,0,0,.33-.15.46.46,0,0,0,.12-.35l-.85-7.5a.44.44,0,0,0-.44-.4Z" fill="#b2b2b2"/>
      <path id="Path_57" data-name="Path 57" d="M15.12,17.79H13.78a1.45,1.45,0,0,1-1.44-1.29L11.5,9a1.39,1.39,0,0,1,.36-1.12,1.42,1.42,0,0,1,1.07-.49h3A1.46,1.46,0,0,1,17.4,9l-.85,7.5A1.45,1.45,0,0,1,15.12,17.79Zm-2.19-9.4a.46.46,0,0,0-.33.15.49.49,0,0,0-.11.35l.85,7.5a.44.44,0,0,0,.44.4h1.34a.46.46,0,0,0,.44-.4l.84-7.5a.42.42,0,0,0-.11-.35A.45.45,0,0,0,16,8.39Z" fill="#b2b2b2"/>
      <path id="Path_58" data-name="Path 58" d="M9.15,18V.5a.5.5,0,1,0-1,0V18a.5.5,0,0,0,1,0Z" fill="#b2b2b2"/>
    </g>
  </g>
</svg>
