<?xml version="1.0" encoding="utf-8"?>
<!-- Generator: Adobe Illustrator 25.2.3, SVG Export Plug-In . SVG Version: 6.00 Build 0)  -->
<svg version="1.1" id="Layer_1" xmlns="http://www.w3.org/2000/svg" xmlns:xlink="http://www.w3.org/1999/xlink" x="0px" y="0px"
	 viewBox="0 0 23.4 34.3" style="enable-background:new 0 0 23.4 34.3;" xml:space="preserve">
<style type="text/css">
	.st0{fill:#B4B4B4;}
</style>
<g>
	<path class="st0" d="M17.9,12.7V6.2c0-3.4-2.8-6.2-6.2-6.2S5.5,2.8,5.5,6.2v6.5C2.2,14.8,0,18.4,0,22.6c0,6.5,5.3,11.7,11.7,11.7
		s11.7-5.3,11.7-11.7C23.4,18.4,21.2,14.7,17.9,12.7z M8.5,6.2c0-1.8,1.4-3.2,3.2-3.2c1.8,0,3.2,1.4,3.2,3.2v5.2
		c-1-0.3-2.1-0.5-3.2-0.5c-1.1,0-2.2,0.2-3.2,0.5V6.2z M11.7,31.4c-4.8,0-8.8-3.9-8.8-8.7c0-4.8,3.9-8.8,8.8-8.8
		c4.8,0,8.8,3.9,8.8,8.8C20.5,27.4,16.5,31.4,11.7,31.4z"/>
	<path class="st0" d="M11.5,18.5c-1.2,0.1-2.2,1.1-2.3,2.3c0,0.8,0.4,1.6,1.2,2.1v2.8c0,0.7,0.6,1.3,1.3,1.3c0.7,0,1.3-0.6,1.3-1.3
		v-2.8c0.7-0.4,1.2-1.2,1.2-2.1C14.1,19.4,12.9,18.4,11.5,18.5z"/>
</g>
</svg>
